<svg width="950" height="950" xmlns="http://www.w3.org/2000/svg">

 <title>replit logo</title>
 <g>
  <title>Layer 1</title>
  <g id="svg_7">
   <path id="svg_1" fill="#56676e" d="m921.50001,433.06504c1.23,13.58 2.08,27.28 2.08,41.19l0,0c0,-13.91 -0.85,-27.6 -2.08,-41.19z" class="cls-2"/>
   <path id="svg_2" fill="#56676e" d="m256.00001,430.69504s-124.75,459.64 375.26,463.64c156.88,-58.4 272.48,-201.58 290,-374.2c1.21,-11.94 1.57,-24.12 1.84,-36.32c0.05,-3.21 0.48,-6.33 0.48,-9.56c0,-13.9 -0.85,-27.61 -2.08,-41.19c-132.1,520.03 -716.5,316.34 -665.5,-2.37z" class="cls-2"/>
   <path id="svg_3" fill="#56676e" d="m514.54001,260.08504s-465.54,-130.01 -458.38,377.61a449.86,449.86 0 0 0 108.49,162.17c2,1.89 4.07,3.68 6.09,5.54a450.17,450.17 0 0 0 42.54,34.67c2.31,1.65 4.48,3.47 6.8,5.08a446.74,446.74 0 0 0 49.11,29.16c4.93,2.54 10,4.86 15,7.23a443.91,443.91 0 0 0 44.85,18.2c3.75,1.28 7.33,2.88 11.13,4.07a444.68,444.68 0 0 0 55.83,13.2c5.71,1 11.48,1.84 17.26,2.64a450,450 0 0 0 59.11,4.59c0.76,0 1.49,0.12 2.25,0.12c14.92,0 29.65,-0.8 44.18,-2.23c-522.34,-124.57 -323.8,-708.65 -4.26,-662.05z" class="cls-2"/>
   <path id="svg_4" fill="#56676e" d="m696.00001,500.81504s110.14,-464.34 -385.64,-443.6c-166.25,65.67 -283.94,227.43 -283.94,417a451.1,451.1 0 0 0 4.61,61c104.34,-525.34 698.77,-355.2 664.97,-34.4z" class="cls-2"/>
   <path id="svg_5" fill="#56676e" d="m457.95001,700.63504s466.35,60.88 437.16,-382.51c-63.47,-170.67 -227.35,-292.49 -420.11,-292.49a450.24,450.24 0 0 0 -81.35,7.73c519.64,63.79 384.58,671.81 64.3,667.27z" class="cls-2"/>
   <path id="svg_6" fill="#4e4f50" d="m604.46001,474.26504a125.65,125.65 0 1 1 -125.61,-125.65a125.64,125.64 0 0 1 125.61,125.65z" class="cls-3"/>
  </g>
 </g>
</svg>